<svg width="220" height="56" viewBox="0 0 220 56" fill="none" xmlns="http://www.w3.org/2000/svg">
  <defs>
    <linearGradient id="gold" x1="0%" y1="0%" x2="100%" y2="100%">
      <stop offset="0%" stop-color="#C5A133" />
      <stop offset="100%" stop-color="#8B712A" />
    </linearGradient>
  </defs>
  <!-- Símbolo: C + folhas + círculo -->
  <g transform="translate(2, 2)">
    <path d="M20 8c0-4 2-8 8-8 3 0 6 1.5 7.5 4" stroke="url(#gold)" stroke-width="1.6" stroke-linecap="round" fill="none"/>
    <path d="M20 24c0 4 2 8 8 8 3 0 6-1.5 7.5-4" stroke="url(#gold)" stroke-width="1.6" stroke-linecap="round" fill="none"/>
    <circle cx="28" cy="4" r="2.8" fill="url(#gold)"/>
    <path d="M24 12c2 1 5 2 10 2" stroke="url(#gold)" stroke-width="1.2" stroke-linecap="round" fill="none"/>
    <path d="M24 20c2-1 5-2 10-2" stroke="url(#gold)" stroke-width="1.2" stroke-linecap="round" fill="none"/>
  </g>
  <text x="48" y="22" fill="url(#gold)" font-family="Georgia, 'Times New Roman', serif" font-size="18" font-weight="600" letter-spacing="0.4">KARINNE AZIN</text>
  <line x1="48" y1="28" x2="195" y2="28" stroke="url(#gold)" stroke-width="0.7" stroke-opacity="0.75"/>
  <text x="48" y="42" fill="url(#gold)" font-family="Arial, sans-serif" font-size="10" font-weight="500" letter-spacing="0.3" opacity="0.9">S A Ú D E   D A   M U L H E R</text>
</svg>
